HIERARCHY
ROOT pelvis
{
  OFFSET 0 100 0
  CHANNELS 6 Xposition Yposition Zposition Zrotation Xrotation Yrotation
  JOINT pelvis_right_femur
  {
    OFFSET -10.78128 -3.44521 -0.5502486
    CHANNELS 3 Zrotation Xrotation Yrotation
    JOINT right_femur_tibia
    {
      OFFSET -0.8047443 -44.0398 -0.1307829
      CHANNELS 3 Zrotation Xrotation Yrotation
      JOINT right_tibia_foot
      {
        OFFSET 3.006224 -47.83518 -5
        CHANNELS 3 Zrotation Xrotation Yrotation
        End Site
        {
          OFFSET 0 -5 15
        }
      }
    }
  }
  JOINT pelvis_left_femur
  {
    OFFSET 10.78128 -3.44521 -0.5502486
    CHANNELS 3 Zrotation Xrotation Yrotation
    JOINT left_femur_tibia
    {
      OFFSET 0.8047443 -44.0398 -0.1307829
      CHANNELS 3 Zrotation Xrotation Yrotation
      JOINT left_tibia_foot
      {
        OFFSET -4.370144 -48.10324 -4.275266
        CHANNELS 3 Zrotation Xrotation Yrotation
        End Site
        {
          OFFSET 0 -5 15
        }
      }
    }
  }
  JOINT pelvis_spine1
  {
    OFFSET 0 6.468898 -3.129235
    CHANNELS 3 Zrotation Xrotation Yrotation
    JOINT spine1
    {
      OFFSET 0 23.15396 4.99043
      CHANNELS 3 Zrotation Xrotation Yrotation
      JOINT spine2
      {
        OFFSET 0 20.79997 -5.064912
        CHANNELS 3 Zrotation Xrotation Yrotation
        JOINT neck
        {
          OFFSET 0 14.38658 9.616178
          CHANNELS 3 Zrotation Xrotation Yrotation
          End Site
          {
            OFFSET 0 20 0
          }
        }
      }
      JOINT right_manubrium
      {
        OFFSET -5.722621 16.35077 3.967754
        CHANNELS 3 Zrotation Xrotation Yrotation
        JOINT right_clavicle
        {
          OFFSET -13.16364 1.694482 -4.693211
          CHANNELS 3 Zrotation Xrotation Yrotation
          JOINT right_humerus
          {
            OFFSET -28.5034 -0.3100689 -2.792744
            CHANNELS 3 Zrotation Xrotation Yrotation
            JOINT right_radius
            {
              OFFSET -25.15693 0.02248979 -1.271978
              CHANNELS 3 Zrotation Xrotation Yrotation
              End Site
              {
                OFFSET -15 0 0
              }
            }
          }
        }
      }
      JOINT left_manubrium
      {
        OFFSET 5.722621 16.35077 3.967754
        CHANNELS 3 Zrotation Xrotation Yrotation
        JOINT left_clavicle
        {
          OFFSET 13.16364 1.694482 -4.693211
          CHANNELS 3 Zrotation Xrotation Yrotation
          JOINT left_humerus
          {
            OFFSET 29.39168 -1.063119 -2.237045
            CHANNELS 3 Zrotation Xrotation Yrotation
            JOINT left_radius
            {
              OFFSET 24.59957 -0.9528479 0.9047498
              CHANNELS 3 Zrotation Xrotation Yrotation
              End Site
              {
                OFFSET 15 -0 -0
              }
            }
          }
        }
      }
    }
  }
}
MOTION
Frames: 9
Frame Time: 0.0416666666667
0 103.5113 0 0.1495526 -0.573601 0.0001810848 4.575476 -19.27579 10.04058 -0 39.68518 -0 -7.255669 -12.03282 -2.964381 -6.683005 10.44421 -22.1149 -0 5.527226 -0 10.36904 -16.96497 27.67673 -2.88895 -3.461482 4.869576 2.229475 10.10454 -7.607867 1.624031 21.8237 6.627382 2.826725 -26.42094 10.09326 5.000393 -20.70838 11.13265 87.12908 34.27737 -19.02652 -0 0 16.01348 -7.07193 7.729376 4.047668 6.373227 -20.13379 -1.133436 -93.92642 23.98079 22.50062 0 0 -14.32951 12.58444 16.69223 0.8489689
0.2390382 103.3441 1.965085 -0.3490972 -0.1048225 -0.007639776 5.371435 -22.18266 9.738527 -0 37.58335 -0 -7.310143 -10.45229 -3.019729 -6.210836 11.33401 -21.38004 -0 5.764473 -0 8.879043 -18.5227 26.54732 -2.663125 -3.023248 4.47742 2.476246 9.946367 -7.938189 1.522666 21.48812 6.915845 3.092972 -26.53915 10.03397 4.924239 -20.18379 11.13465 87.28688 33.99444 -19.64361 -0 0 15.61886 -7.602892 7.891389 4.20447 6.762349 -20.53622 -1.027308 -93.78943 24.08134 21.96235 0 0 -15.00088 11.70482 16.71317 1.628627
0.4703104 102.9965 4.261762 -0.7146142 1.21434 0.03812757 6.242515 -26.3458 9.145694 -0 32.10505 -0 -6.806684 -10.47856 -2.663589 -5.994437 12.24066 -20.68649 -0 6.124022 -0 8.44018 -19.58029 25.23033 -2.63192 -2.577544 4.209899 2.984384 9.551948 -8.250419 1.449576 21.03554 7.176448 3.251439 -26.66483 10.10534 5.182489 -19.41294 11.19194 86.97529 34.63744 -20.22631 -0 0 14.87889 -7.448541 8.195101 4.287628 7.1378 -20.87754 -0.8250877 -92.71734 23.71639 20.32135 0 0 -17.07487 12.11154 15.95511 0.8121489
0.7184581 102.3652 7.125415 -0.9664292 1.878242 0.1831582 6.495261 -29.75257 7.6652 -0 26.76622 -0 -6.467041 -8.341625 -2.234818 -5.820301 13.08074 -19.02525 -0 6.568191 -0 7.213801 -20.85187 23.11972 -2.508057 -1.979826 3.893447 3.25574 9.465374 -8.472979 1.285355 20.5878 7.525373 3.459258 -26.67976 10.00485 4.904828 -18.81599 11.28847 87.38561 34.13335 -20.96029 -0 0 13.64342 -8.615598 8.604298 5.064958 7.487116 -21.5965 -1.065012 -91.22189 22.87759 18.42088 0 0 -19.69299 12.01882 14.79887 0.5951923
1.006861 101.3604 10.78722 -0.9690864 1.869916 0.4572316 5.882557 -32.35058 5.119203 -0 21.04463 -0 -6.171048 -4.423621 -1.80806 -5.816062 13.97369 -16.36829 -0 6.877989 -0 5.517715 -22.18541 20.32989 -2.352896 -1.31821 3.611379 3.270717 9.703617 -8.615584 1.020712 20.18141 7.923995 3.663986 -26.45853 9.694861 4.08382 -18.39422 11.44567 88.59053 32.53584 -21.93848 -0 0 11.77312 -11.12805 9.083101 6.54937 7.813938 -22.79679 -1.809422 -89.07048 21.32777 15.95859 0 0 -23.3634 11.69127 13.16171 0.6959474
1.336073 99.98968 15.44714 -0.7664883 1.481668 0.8976235 4.768268 -34.13398 2.024848 -0 14.90648 -0 -6.004631 0.5340902 -1.554139 -5.967774 15.13497 -13.10663 -0 7.614913 -0 3.36175 -23.41037 17.09198 -2.141514 -0.7670654 3.400966 3.08988 10.09774 -8.706908 0.7256819 19.80753 8.271567 3.83217 -26.08035 9.217728 2.858331 -18.04371 11.58688 90.47216 30.30268 -23.21171 -0 0 9.398978 -14.27378 9.498389 8.282076 8.114824 -24.32672 -2.810933 -86.6333 19.33085 13.22004 0 0 -27.8911 11.10851 11.27942 1.145275
1.676338 98.42424 21.22387 -0.4761557 1.01035 1.526876 3.883751 -34.63268 -0.6127136 -0 9.103664 -0 -6.1839 5.502647 -1.643335 -6.165626 16.56331 -9.90146 -0 9.819517 -0 0.7971331 -23.99917 13.8365 -1.78074 -0.5916143 3.299534 2.770242 10.47353 -8.750963 0.4969168 19.47645 8.403342 3.901781 -25.72057 8.630426 1.430095 -17.7515 11.63224 92.84694 28.03737 -24.73092 -0 0 6.8659 -17.02587 9.761326 9.622405 8.291253 -25.86464 -3.74723 -84.50076 17.44815 10.90646 0 0 -32.56313 10.12248 9.577294 2.149708
1.979098 97.05655 27.99001 -0.3869235 0.7699757 2.300285 4.287652 -32.97619 -1.250866 -0 5.646157 -0 -6.927949 8.772511 -2.189784 -6.020649 17.47919 -7.795454 -0 14.72187 -0 -1.800077 -22.83387 11.30187 -1.109208 -1.044547 3.344371 2.434076 10.73934 -8.78034 0.4021236 19.14197 8.135447 3.789749 -25.67237 7.988655 0.3025918 -17.72367 11.61686 95.1369 26.74496 -26.14673 -0 0 5.081982 -18.18787 9.975826 10.01422 8.047287 -26.79671 -4.273999 -83.49041 16.51912 10.4148 0 0 -35.72697 8.433304 8.607484 4.130089
2.248815 96.4042 35.17515 -0.957002 1.088116 3.048109 6.419386 -28.67411 1.024339 -0 6.997228 -0 -8.009601 8.150435 -2.96907 -4.928737 15.68435 -7.738484 -0 22.77959 -0 -3.446103 -18.41262 10.13928 -0.02238522 -1.945413 3.56909 2.356218 11.05325 -8.889903 0.342597 18.58667 7.524715 3.503544 -26.1998 7.356383 0.5102278 -18.36438 11.89542 95.93029 27.86218 -26.56631 -0 0 5.52514 -17.23134 10.53544 9.76562 6.897031 -26.33066 -4.288948 -84.40805 16.90169 13.50218 0 0 -35.09689 6.076517 8.480672 7.147655
